<svg xmlns="http://www.w3.org/2000/svg" style="margin:auto;background:#ffffff;display:block;" width="306" height="350" preserveAspectRatio="xMidYMid">
<style type="text/css">
  text {
    text-anchor: middle; font-size: 81px; opacity: 0;
  }
</style>
<g style="transform-origin: 153px 175px; transform: scale(0.870968);">
<g transform="translate(153,175)">
  <g transform="translate(0,0)"><g class="path" style="transform: matrix(1, 0, 0, 1, 0, 0); transform-origin: -125.015px -1.0578px; animation: 1s linear -0.55s infinite normal forwards running bounce-41d94df1-403c-4863-b2ef-796105a5d194;"><path d="M50.86 0L30.33 0L30.33-3.63L34.24-3.91L34.24-3.91Q35.06-4.00 35.62-4.54L35.62-4.54L35.62-4.54Q36.19-5.09 36.19-5.95L36.19-5.95L36.19-30.15L36.19-30.15Q36.19-34.56 34.15-36.85L34.15-36.85L34.15-36.85Q32.10-39.14 27.25-39.14L27.25-39.14L27.25-39.14Q24.57-39.14 21.98-38.39L21.98-38.39L21.98-38.39Q19.39-37.65 17.03-36.46L17.03-36.46L17.03-5.95L17.03-5.95Q17.03-5.09 17.57-4.54L17.57-4.54L17.57-4.54Q18.12-4.00 18.98-3.91L18.98-3.91L22.89-3.63L22.89 0L1.86 0L1.86-3.63L6.40-3.91L6.40-3.91Q7.27-4.00 7.81-4.54L7.81-4.54L7.81-4.54Q8.36-5.09 8.36-5.95L8.36-5.95L8.36-38.24L1.86-38.24L1.86-41.28L13.21-44.82L17.03-44.82L17.03-40.19L17.03-40.19Q18.98-41.28 21.00-42.32L21.00-42.32L21.00-42.32Q23.02-43.37 25.02-44.18L25.02-44.18L25.02-44.18Q27.02-45.00 28.88-45.48L28.88-45.48L28.88-45.48Q30.74-45.96 32.38-45.96L32.38-45.96L32.38-45.96Q38.46-45.96 41.64-42.19L41.64-42.19L41.64-42.19Q44.82-38.42 44.82-31.61L44.82-31.61L44.82-5.95L44.82-5.95Q44.82-5.09 45.39-4.54L45.39-4.54L45.39-4.54Q45.96-4.00 46.77-3.91L46.77-3.91L50.86-3.63L50.86 0" fill="#51cacc" stroke="none" stroke-width="none" transform="translate(-151.375,21.922198994954424)" style="fill: rgb(81, 202, 204);"></path></g><g class="path" style="transform: matrix(1, 0, 0, 1, 0, 0); transform-origin: -75.86px -0.487801px; animation: 1s linear -0.44s infinite normal forwards running bounce-41d94df1-403c-4863-b2ef-796105a5d194;"><path d="M95.13-10.31L95.13-4.63L95.13-4.63Q93.18-3.41 91.07-2.36L91.07-2.36L91.07-2.36Q88.96-1.32 86.71-0.54L86.71-0.54L86.71-0.54Q84.46 0.23 82.15 0.68L82.15 0.68L82.15 0.68Q79.83 1.14 77.47 1.14L77.47 1.14L77.47 1.14Q73.25 1.14 69.34-0.30L69.34-0.30L69.34-0.30Q65.44-1.73 62.46-4.59L62.46-4.59L62.46-4.59Q59.49-7.45 57.69-11.78L57.69-11.78L57.69-11.78Q55.90-16.12 55.90-21.93L55.90-21.93L55.90-21.93Q55.90-27.38 57.53-31.81L57.53-31.81L57.53-31.81Q59.17-36.24 62.08-39.39L62.08-39.39L62.08-39.39Q64.98-42.55 68.98-44.25L68.98-44.25L68.98-44.25Q72.97-45.96 77.74-45.96L77.74-45.96L77.74-45.96Q82.06-45.96 85.33-44.52L85.33-44.52L85.33-44.52Q88.60-43.09 90.77-40.57L90.77-40.57L90.77-40.57Q92.95-38.05 94.04-34.53L94.04-34.53L94.04-34.53Q95.13-31.02 95.13-26.88L95.13-26.88L95.13-25.66L95.13-25.66Q95.13-24.93 95.04-24.29L95.04-24.29L64.89-24.29L64.89-24.29Q64.89-20.75 65.64-17.21L65.64-17.21L65.64-17.21Q66.39-13.67 68.16-10.85L68.16-10.85L68.16-10.85Q69.93-8.04 72.93-6.29L72.93-6.29L72.93-6.29Q75.93-4.54 80.42-4.54L80.42-4.54L80.42-4.54Q82.42-4.54 84.37-5.06L84.37-5.06L84.37-5.06Q86.32-5.59 88.21-6.40L88.21-6.40L88.21-6.40Q90.09-7.22 91.82-8.24L91.82-8.24L91.82-8.24Q93.54-9.26 95.13-10.31L95.13-10.31zM85.83-28.47L85.83-30.52L85.83-30.52Q85.83-32.83 85.28-34.81L85.28-34.81L85.28-34.81Q84.74-36.78 83.62-38.24L83.62-38.24L83.62-38.24Q82.51-39.69 80.81-40.53L80.81-40.53L80.81-40.53Q79.10-41.37 76.79-41.37L76.79-41.37L76.79-41.37Q74.47-41.37 72.47-40.48L72.47-40.48L72.47-40.48Q70.48-39.60 68.96-37.92L68.96-37.92L68.96-37.92Q67.43-36.24 66.50-33.85L66.50-33.85L66.50-33.85Q65.57-31.47 65.39-28.47L65.39-28.47L85.83-28.47" fill="#51cacc" stroke="none" stroke-width="none" transform="translate(-151.375,21.922198994954424)" style="fill: rgb(157, 248, 113);"></path></g><g class="path" style="transform: matrix(1, 0, 0, 1, 0, 0); transform-origin: -16.665px -0.487801px; animation: 1s linear -0.33s infinite normal forwards running bounce-41d94df1-403c-4863-b2ef-796105a5d194;"><path d="M170.20-41.19L165.47-40.64L152.71 0L146.13 0L135.14-34.78L122.88 0L116.25 0L104.35-40.64L99.22-41.19L99.22-44.82L119.61-44.82L119.61-41.19L115.25-40.91L115.25-40.91Q114.62-40.82 114.21-40.42L114.21-40.42L114.21-40.42Q113.80-40.01 113.80-39.37L113.80-39.37L113.80-39.37Q113.80-39.05 113.84-38.87L113.84-38.87L121.56-9.94L133.55-44.82L140.18-44.82L150.94-9.94L159.53-38.87L159.53-38.87Q159.57-39.01 159.57-39.33L159.57-39.33L159.57-39.33Q159.57-39.92 159.21-40.39L159.21-40.39L159.21-40.39Q158.84-40.87 158.21-40.91L158.21-40.91L153.94-41.19L153.94-44.82L170.20-44.82L170.20-41.19" fill="#51cacc" stroke="none" stroke-width="none" transform="translate(-151.375,21.922198994954424)" style="fill: rgb(224, 255, 119);"></path></g><g class="path" style="transform: matrix(1, 0, 0, 1, 0, 0); transform-origin: 38.28px -0.487801px; animation: 1s linear -0.22s infinite normal forwards running bounce-41d94df1-403c-4863-b2ef-796105a5d194;"><path d="M204.98-13.49L204.98-13.49L204.98-13.49Q204.98-10.08 203.76-7.36L203.76-7.36L203.76-7.36Q202.53-4.63 200.26-2.75L200.26-2.75L200.26-2.75Q197.99-0.86 194.67 0.14L194.67 0.14L194.67 0.14Q191.36 1.14 187.23 1.14L187.23 1.14L187.23 1.14Q185.09 1.14 183.07 0.89L183.07 0.89L183.07 0.89Q181.05 0.64 179.35 0.25L179.35 0.25L179.35 0.25Q177.64-0.14 176.33-0.54L176.33-0.54L176.33-0.54Q175.01-0.95 174.33-1.23L174.33-1.23L174.33-13.58L179.05-13.58L180.19-5.68L180.19-5.68Q181.60-4.77 183.66-3.93L183.66-3.93L183.66-3.93Q185.73-3.09 188.45-3.09L188.45-3.09L188.45-3.09Q190.45-3.09 191.99-3.70L191.99-3.70L191.99-3.70Q193.54-4.31 194.61-5.31L194.61-5.31L194.61-5.31Q195.67-6.31 196.24-7.61L196.24-7.61L196.24-7.61Q196.81-8.90 196.81-10.31L196.81-10.31L196.81-10.31Q196.81-12.12 196.13-13.46L196.13-13.46L196.13-13.46Q195.45-14.80 194.15-15.87L194.15-15.87L194.15-15.87Q192.86-16.94 190.97-17.91L190.97-17.91L190.97-17.91Q189.09-18.89 186.68-20.07L186.68-20.07L185.46-20.66L185.46-20.66Q182.91-21.89 180.96-23.09L180.96-23.09L180.96-23.09Q179.01-24.29 177.67-25.68L177.67-25.68L177.67-25.68Q176.33-27.06 175.65-28.72L175.65-28.72L175.65-28.72Q174.97-30.38 174.97-32.47L174.97-32.47L174.97-32.47Q174.97-35.56 176.08-38.05L176.08-38.05L176.08-38.05Q177.19-40.55 179.32-42.30L179.32-42.30L179.32-42.30Q181.46-44.05 184.57-45.00L184.57-45.00L184.57-45.00Q187.68-45.96 191.72-45.96L191.72-45.96L191.72-45.96Q193.77-45.96 195.63-45.73L195.63-45.73L195.63-45.73Q197.49-45.50 199.03-45.18L199.03-45.18L199.03-45.18Q200.58-44.87 201.76-44.50L201.76-44.50L201.76-44.50Q202.94-44.14 203.62-43.82L203.62-43.82L203.62-32.83L198.76-32.83L198.03-39.33L198.03-39.33Q197.03-40.10 195.08-40.78L195.08-40.78L195.08-40.78Q193.13-41.46 190.95-41.46L190.95-41.46L190.95-41.46Q187.09-41.46 185.25-39.71L185.25-39.71L185.25-39.71Q183.41-37.96 183.41-35.24L183.41-35.24L183.41-35.24Q183.41-33.65 183.93-32.47L183.93-32.47L183.93-32.47Q184.46-31.29 185.66-30.24L185.66-30.24L185.66-30.24Q186.86-29.20 188.86-28.13L188.86-28.13L188.86-28.13Q190.86-27.06 193.81-25.75L193.81-25.75L193.81-25.75Q196.22-24.66 198.26-23.45L198.26-23.45L198.26-23.45Q200.30-22.25 201.80-20.78L201.80-20.78L201.80-20.78Q203.30-19.30 204.14-17.53L204.14-17.53L204.14-17.53Q204.98-15.76 204.98-13.49" fill="#51cacc" stroke="none" stroke-width="none" transform="translate(-151.375,21.922198994954424)" style="fill: rgb(222, 157, 214);"></path></g><g class="path" style="transform: matrix(1, 0, 0, 1, 0, 0); transform-origin: 78.765px -6.7328px; animation: 1s linear -0.11s infinite normal forwards running bounce-41d94df1-403c-4863-b2ef-796105a5d194;"><path d="M241.54 0L232.05 0L232.05-45.96L232.05-45.96Q230.87-44.87 229.16-43.80L229.16-43.80L229.16-43.80Q227.46-42.73 225.60-41.80L225.60-41.80L225.60-41.80Q223.74-40.87 221.92-40.12L221.92-40.12L221.92-40.12Q220.10-39.37 218.74-38.96L218.74-38.96L218.74-47.91L218.74-47.91Q220.28-48.54 222.31-49.81L222.31-49.81L222.31-49.81Q224.33-51.09 226.23-52.52L226.23-52.52L226.23-52.52Q228.14-53.95 229.68-55.26L229.68-55.26L229.68-55.26Q231.23-56.58 231.77-57.31L231.77-57.31L241.54-57.31L241.54 0" fill="#51cacc" stroke="none" stroke-width="none" transform="translate(-151.375,21.922198994954424)" style="fill: rgb(255, 112, 142);"></path></g><g class="path" style="transform: matrix(1, 0, 0, 1, 0, 0); transform-origin: 131.8px -6.7328px; animation: 1s linear 0s infinite normal forwards running bounce-41d94df1-403c-4863-b2ef-796105a5d194;"><path d="M304.61-12.26L298.48-12.26L298.48 0L289.08 0L289.08-12.26L261.74-12.26L261.74-23.34L285.45-57.31L298.48-57.31L298.48-20.57L304.61-20.57L304.61-12.26zM289.08-20.57L289.08-50.41L268.78-20.57L289.08-20.57" fill="#51cacc" stroke="none" stroke-width="none" transform="translate(-151.375,21.922198994954424)" style="fill: rgb(81, 202, 204);"></path></g></g>
</g>
</g>
</svg>